<?xml version="1.0" encoding="UTF-8" standalone="no"?>
<!DOCTYPE svg PUBLIC "-//W3C//DTD SVG 1.1//EN" "http://www.w3.org/Graphics/SVG/1.1/DTD/svg11.dtd">
<svg width="100%" height="100%" viewBox="0 0 5636 416" version="1.1" xmlns="http://www.w3.org/2000/svg" xmlns:xlink="http://www.w3.org/1999/xlink" xml:space="preserve" style="fill-rule:evenodd;clip-rule:evenodd;stroke-linejoin:round;stroke-miterlimit:1.41421;">
    <g transform="matrix(1,0,0,1,-13564,-11025.5)">
        <g transform="matrix(2.22775,0,0,1,-20112.9,0)">
            <path d="M17288,11090.6C17325.9,11050.5 17379.5,11025.5 17439,11025.5C17553.7,11025.5 17646.8,11118.7 17646.8,11233.4L17646.8,11441.3L17442.5,11441.3C17441.3,11441.3 17440.2,11441.3 17439,11441.3C17437.8,11441.3 17436.6,11441.3 17435.4,11441.3L17140.5,11441.3C17139.3,11441.3 17138.1,11441.3 17136.9,11441.3C17135.8,11441.3 17134.6,11441.3 17133.4,11441.3L16838.5,11441.3C16837.3,11441.3 16836.1,11441.3 16834.9,11441.3C16833.7,11441.3 16832.5,11441.3 16831.4,11441.3L16536.5,11441.3C16535.3,11441.3 16534.1,11441.3 16532.9,11441.3C16531.7,11441.3 16530.5,11441.3 16529.3,11441.3L16234.5,11441.3C16233.3,11441.3 16232.1,11441.3 16230.9,11441.3C16229.7,11441.3 16228.5,11441.3 16227.3,11441.3L15932.5,11441.3C15931.3,11441.3 15930.1,11441.3 15928.9,11441.3C15927.7,11441.3 15926.5,11441.3 15925.3,11441.3L15630.5,11441.3C15629.3,11441.3 15628.1,11441.3 15626.9,11441.3C15625.7,11441.3 15624.5,11441.3 15623.3,11441.3L15328.4,11441.3C15327.3,11441.3 15326.1,11441.3 15324.9,11441.3C15323.7,11441.3 15322.5,11441.3 15321.3,11441.3L15117,11441.3L15117,11233.4C15117,11118.7 15210.1,11025.5 15324.9,11025.5C15384.3,11025.5 15438,11050.5 15475.9,11090.6C15513.8,11050.5 15567.4,11025.5 15626.9,11025.5C15686.3,11025.5 15740,11050.5 15777.9,11090.6C15815.8,11050.5 15869.4,11025.5 15928.9,11025.5C15988.3,11025.5 16042,11050.5 16079.9,11090.6C16117.8,11050.5 16171.5,11025.5 16230.9,11025.5C16290.4,11025.5 16344,11050.5 16381.9,11090.6C16419.8,11050.5 16473.5,11025.5 16532.9,11025.5C16592.4,11025.5 16646,11050.5 16683.9,11090.6C16721.8,11050.5 16775.5,11025.5 16834.9,11025.5C16894.4,11025.5 16948,11050.5 16985.9,11090.6C17023.8,11050.5 17077.5,11025.5 17136.9,11025.5C17196.4,11025.5 17250.1,11050.5 17288,11090.6Z" style="fill:rgb(0,106,177);"/>
        </g>
    </g>
</svg>
