<?xml version="1.0" encoding="UTF-8" standalone="no"?>
<!DOCTYPE svg PUBLIC "-//W3C//DTD SVG 1.1//EN" "http://www.w3.org/Graphics/SVG/1.1/DTD/svg11.dtd">
<svg width="100%" height="100%" viewBox="0 0 5637 416" version="1.1" xmlns="http://www.w3.org/2000/svg" xmlns:xlink="http://www.w3.org/1999/xlink" xml:space="preserve" style="fill-rule:evenodd;clip-rule:evenodd;stroke-linejoin:round;stroke-miterlimit:1.41421;">
    <g transform="matrix(1,0,0,1,-13563.8,-11569.3)">
        <g transform="matrix(2.2279,0,0,1,-20115.3,0)">
            <path d="M17646.8,11985L17234.7,11985C17233.5,11985.1 17232.3,11985.1 17231.1,11985.1C17229.9,11985.1 17228.7,11985.1 17227.5,11985L16932.6,11985C16931.5,11985.1 16930.3,11985.1 16929.1,11985.1C16927.9,11985.1 16926.7,11985.1 16925.5,11985L16630.6,11985C16629.4,11985.1 16628.3,11985.1 16627.1,11985.1C16625.9,11985.1 16624.7,11985.1 16623.5,11985L16328.6,11985C16327.4,11985.1 16326.2,11985.1 16325,11985.1C16323.9,11985.1 16322.7,11985.1 16321.5,11985L16026.6,11985C16025.4,11985.1 16024.2,11985.1 16023,11985.1C16021.8,11985.1 16020.7,11985.1 16019.5,11985L15724.6,11985C15723.4,11985.1 15722.2,11985.1 15721,11985.1C15719.8,11985.1 15718.6,11985.1 15717.5,11985L15422.6,11985C15421.4,11985.1 15420.2,11985.1 15419,11985.1C15417.8,11985.1 15416.6,11985.1 15415.4,11985L15120.6,11985C15119.4,11985.1 15118.2,11985.1 15117,11985.1L15117,11985C15117,11985 15117,11860.4 15117,11860.4L15117,11569.3C15176.4,11569.3 15230.1,11594.3 15268,11634.4C15305.9,11594.3 15359.6,11569.3 15419,11569.3C15478.5,11569.3 15532.1,11594.3 15570,11634.4C15607.9,11594.3 15661.6,11569.3 15721,11569.3C15780.5,11569.3 15834.1,11594.3 15872,11634.4C15909.9,11594.3 15963.6,11569.3 16023,11569.3C16082.5,11569.3 16136.1,11594.3 16174,11634.4C16211.9,11594.3 16265.6,11569.3 16325,11569.3C16384.5,11569.3 16438.2,11594.3 16476.1,11634.4C16514,11594.3 16567.6,11569.3 16627.1,11569.3C16686.5,11569.3 16740.2,11594.3 16778.1,11634.4C16816,11594.3 16869.6,11569.3 16929.1,11569.3C16988.5,11569.3 17042.2,11594.3 17080.1,11634.4C17118,11594.3 17171.6,11569.3 17231.1,11569.3C17268.9,11569.3 17304.4,11579.5 17335,11597.2C17365.6,11579.4 17401.1,11569.3 17439,11569.3C17476.8,11569.3 17512.3,11579.4 17542.9,11597.1C17573.5,11579.4 17609,11569.3 17646.8,11569.3L17646.8,11985Z" style="fill:rgb(0,106,177);"/>
        </g>
    </g>
</svg>
